<svg width="99" height="63" viewBox="0 0 99 63" fill="none" xmlns="http://www.w3.org/2000/svg">
<path d="M31.8454 14.8446C34.6523 10.7347 35.4698 6.40723 33.6714 5.17903C31.873 3.9508 28.1396 6.28691 25.3327 10.3968C22.5259 14.5068 21.7083 18.8342 23.5067 20.0624C25.3051 21.2906 29.0384 18.9545 31.8454 14.8446Z" fill="#29C16E" fill-opacity="0.7"/>
<path d="M20.2749 21.5753C21.0514 20.1149 18.4305 17.2028 14.4209 15.0709C10.4114 12.939 6.53154 12.3946 5.75505 13.855C4.97855 15.3153 7.59946 18.2275 11.609 20.3594C15.6186 22.4913 19.4984 23.0357 20.2749 21.5753Z" fill="#29C16E" fill-opacity="0.7"/>
<path d="M40.3773 33.4969C41.6057 31.6987 39.2695 27.9654 35.1596 25.1584C31.0497 22.3515 26.7222 21.534 25.494 23.3324C24.2658 25.1308 26.6019 28.8641 30.7118 31.6709C34.8216 34.4778 39.1492 35.2953 40.3773 33.4969Z" fill="#EF3C56" fill-opacity="0.7"/>
<path d="M13.8778 43.1312C15.0612 47.0022 17.734 50.2445 21.308 52.1448C24.8821 54.0453 29.0647 54.448 32.9357 53.2645C40.9969 50.7999 48.9869 33.8993 40.5605 33.7487C31.3155 33.5841 24.2406 24.3127 22.4381 24.6501C14.1527 26.2002 11.4133 35.0702 13.8778 43.1312Z" fill="#EF3C56" fill-opacity="0.7"/>
<path d="M0.680573 12.98C1.64686 16.1258 3.43657 18.9561 5.86435 21.1778C8.29212 23.3994 11.2697 24.9317 14.4887 25.6158C13.2907 26.8569 12.2722 28.2595 11.4627 29.7827C9.64557 33.1961 8.94789 37.0946 9.46835 40.9263C9.98882 44.758 11.7011 48.3291 14.3629 51.1341C17.0247 53.9391 20.5012 55.8361 24.3005 56.5566C28.0997 57.2768 32.0293 56.7844 35.5332 55.1484C39.037 53.5124 41.9379 50.8161 43.8249 47.4408C45.712 44.0655 46.4897 40.1824 46.0482 36.3407C45.6068 32.499 43.9685 28.8934 41.365 26.0342C38.7616 23.175 35.3249 21.2069 31.5414 20.4083C33.8319 18.0421 35.4467 15.1059 36.2186 11.9045C36.9905 8.70308 36.8912 5.3534 35.9308 2.20342C35.8423 1.91408 35.6979 1.64493 35.5054 1.41146C35.3131 1.17792 35.0765 0.984647 34.8094 0.84257C34.5421 0.700566 34.2496 0.612528 33.9484 0.583547C33.6474 0.554492 33.3434 0.585125 33.054 0.673639C30.7366 1.37538 28.5812 2.52986 26.713 4.07011C24.8447 5.61042 23.3004 7.50601 22.1695 9.64715C21.3595 11.17 20.7664 12.7987 20.4074 14.4858C18.0411 12.1983 15.1058 10.5856 11.906 9.81517C8.70625 9.0447 5.35858 9.14452 2.21041 10.1043C1.92113 10.1926 1.65211 10.3371 1.41867 10.5295C1.18524 10.7218 0.991974 10.9582 0.849914 11.2253C0.707856 11.4923 0.619787 11.7847 0.590731 12.0858C0.561675 12.3868 0.592203 12.6907 0.680573 12.98ZM24.705 19.8408C24.3944 17.0704 24.9285 14.2709 26.2372 11.8094C27.5458 9.348 29.5682 7.3396 32.0385 6.04785C32.3449 8.81772 31.8089 11.6157 30.5008 14.0762C29.1926 16.5369 27.1727 18.5458 24.705 19.8408ZM34.2217 26.2362C36.6829 27.5425 38.6914 29.5632 39.9827 32.0323C37.214 32.3376 34.4172 31.8018 31.9577 30.4939C29.4981 29.1861 27.4898 27.1675 26.1947 24.7013C28.9639 24.3911 31.7622 24.9262 34.2217 26.2362ZM15.5305 31.946C16.8994 29.355 19.0621 27.2704 21.7017 25.9976C23.3895 29.6614 26.232 32.6708 29.7936 34.5646C33.3552 36.4584 37.4394 37.1324 41.4208 36.4831C41.7293 38.6439 41.5217 40.8471 40.8148 42.9122C40.1082 44.9772 38.9225 46.8457 37.3547 48.3644C35.7871 49.8833 33.8821 51.0092 31.7956 51.6503C29.7091 52.291 27.5005 52.429 25.3506 52.0523C23.2006 51.6755 21.1704 50.7951 19.4261 49.4828C17.6819 48.1708 16.2731 46.4641 15.3152 44.5029C14.3573 42.5417 13.8774 40.3814 13.9149 38.199C13.9523 36.0166 14.5061 33.8743 15.5308 31.9469L15.5305 31.946ZM6.05687 13.9946C8.82578 13.6891 11.6225 14.2253 14.0821 15.5331C16.5418 16.8409 18.5502 18.8597 19.8453 21.326C17.0765 21.6314 14.2799 21.0951 11.8204 19.7873C9.36097 18.4794 7.35278 16.4606 6.05783 13.9943L6.05687 13.9946Z" fill="#0E1E28"/>
<path d="M87.6234 22.1781C92.2487 20.3404 95.3463 17.2099 94.5421 15.186C93.738 13.1621 89.3366 13.0112 84.7113 14.8489C80.0861 16.6866 76.9885 19.817 77.7926 21.8409C78.5967 23.8648 82.9981 24.0157 87.6234 22.1781Z" fill="#29C16E" fill-opacity="0.7"/>
<path d="M74.2673 21.288C75.7276 20.5115 75.1832 16.6316 73.0513 12.622C70.9194 8.61251 68.0073 5.9916 66.5469 6.7681C65.0865 7.54459 65.6309 11.4245 67.7629 15.434C69.8948 19.4435 72.8069 22.0644 74.2673 21.288Z" fill="#29C16E" fill-opacity="0.7"/>
<path d="M84.2664 42.4125C86.2904 41.6086 86.4412 37.2072 84.6036 32.5819C82.766 27.9566 79.6355 24.859 77.6116 25.6631C75.5877 26.4672 75.4368 30.8686 77.2745 35.4938C79.112 40.119 82.2426 43.2167 84.2664 42.4125Z" fill="#EF3C56" fill-opacity="0.7"/>
<path d="M56.9099 35.5813C55.7264 39.4523 56.1291 43.635 58.0295 47.2089C59.9299 50.7831 63.1722 53.4558 67.0432 54.6393C75.1044 57.1038 91.1791 47.5606 84.2774 42.7237C76.7051 37.4175 76.0242 25.7749 74.3412 25.0467C66.6055 21.6987 59.3744 27.5204 56.9099 35.5813Z" fill="#EF3C56" fill-opacity="0.7"/>
<path d="M62.8293 3.20508C61.8712 6.35343 61.7723 9.70066 62.5427 12.9001C63.313 16.0995 64.9247 19.0349 67.2109 21.4021C65.5237 21.7611 63.895 22.3543 62.3721 23.1645C58.9569 24.9782 56.1985 27.82 54.4873 31.2877C52.7761 34.7554 52.1987 38.6735 52.8369 42.4874C53.4751 46.3013 55.2965 49.818 58.0433 52.5398C60.7903 55.2614 64.3235 57.0506 68.1431 57.6536C71.9628 58.2566 75.8754 57.6435 79.3273 55.9004C82.7792 54.1574 85.5953 51.3731 87.3776 47.9413C89.1599 44.5096 89.8179 40.6043 89.2583 36.778C88.6989 32.9518 86.9503 29.3983 84.2602 26.6206C87.4822 25.9398 90.463 24.4085 92.8931 22.1861C95.3232 19.9637 97.114 17.1311 98.0792 13.9826C98.1676 13.6932 98.1984 13.3893 98.1694 13.0881C98.1406 12.787 98.0525 12.4945 97.9105 12.2273C97.7683 11.9601 97.575 11.7236 97.3415 11.5311C97.1082 11.3387 96.8391 11.1941 96.5497 11.1057C94.236 10.3916 91.8035 10.1434 89.3935 10.3756C86.9832 10.6079 84.6429 11.3158 82.5081 12.4585C80.985 13.2681 79.5825 14.2867 78.3415 15.4846C77.6589 12.2649 76.1272 9.28656 73.9053 6.85854C71.6834 4.4305 68.8523 2.64127 65.7056 1.6765C65.4164 1.588 65.1126 1.55734 64.8115 1.58627C64.5104 1.61519 64.218 1.70313 63.9509 1.84507C63.6838 1.98702 63.4473 2.18018 63.2548 2.41353C63.0624 2.64688 62.9178 2.91585 62.8293 3.20508ZM78.9099 22.3273C80.2016 19.8569 82.2098 17.8346 84.6712 16.5257C87.1326 15.2169 89.9322 14.6827 92.7025 14.9932C91.4077 17.4609 89.3987 19.4808 86.9384 20.7892C84.4778 22.0976 81.6798 22.6336 78.9099 22.3273ZM83.2233 32.951C84.5333 35.4102 85.0684 38.2086 84.7583 40.9777C82.2922 39.6825 80.2732 37.6744 78.9655 35.2148C77.6577 32.7552 77.1216 29.9587 77.427 27.1898C79.8962 28.4812 81.9168 30.4895 83.2233 32.951ZM64.5347 27.2326C67.1185 25.85 70.0771 25.3312 72.9772 25.7521C72.3277 29.7333 73.0014 33.8177 74.8951 37.3794C76.7888 40.941 79.7979 43.7836 83.4617 45.4717C82.5091 47.4356 81.105 49.146 79.3642 50.4628C77.6236 51.7796 75.5957 52.6657 73.4468 53.048C71.2978 53.4306 69.0889 53.2988 67.0006 52.6635C64.9125 52.028 63.0044 50.9074 61.4327 49.3928C59.8609 47.8782 58.6701 46.013 57.9579 43.9497C57.2455 41.8866 57.032 39.6839 57.3345 37.5224C57.6371 35.3608 58.4473 33.3015 59.6987 31.5131C60.9501 29.7248 62.6072 28.2584 64.5344 27.2335L64.5347 27.2326ZM66.719 7.05267C69.1854 8.34777 71.2042 10.3562 72.512 12.8158C73.8198 15.2754 74.3559 18.0722 74.0504 20.8411C71.5843 19.5459 69.5657 17.5375 68.2581 15.0779C66.9504 12.6183 66.4144 9.82174 66.72 7.05296L66.719 7.05267Z" fill="#0E1E28"/>
<path d="M60.2653 15.1984C64.1512 12.0887 66.1982 8.18942 64.8374 6.48908C63.4767 4.78871 59.2235 5.93122 55.3376 9.04089C51.4518 12.1506 49.4047 16.0499 50.7654 17.7503C52.1262 19.4506 56.3794 18.3081 60.2653 15.1984Z" fill="#29C16E"/>
<path d="M47.2325 18.2522C48.4021 17.0826 46.7471 13.5314 43.536 10.3204C40.325 7.10937 36.7738 5.45442 35.6043 6.62395C34.4348 7.79348 36.0897 11.3447 39.3008 14.5557C42.5118 17.7667 46.063 19.4217 47.2325 18.2522Z" fill="#29C16E"/>
<path d="M62.971 35.5302C64.6715 34.1697 63.5288 29.9165 60.4192 26.0305C57.3096 22.1447 53.4102 20.0976 51.7099 21.4584C50.0095 22.8191 51.152 27.0723 54.2617 30.958C57.3713 34.8439 61.2707 36.8909 62.971 35.5302Z" fill="#EF3C56"/>
<path d="M34.8126 36.9958C34.8126 41.0437 36.4206 44.9258 39.2829 47.7879C42.1451 50.6503 46.0272 52.2583 50.0751 52.2583C58.5046 52.2583 71.0868 38.4322 63.0725 35.8246C54.2797 32.9642 50.2246 22.0294 48.4022 21.825C40.0256 20.885 34.8126 28.5665 34.8126 36.9958Z" fill="#EF3C56"/>
<path d="M31.0074 4.30357C31.0117 7.59446 31.8957 10.8244 33.5679 13.6588C35.24 16.4932 37.6395 18.829 40.5178 20.4244C39.0093 21.261 37.6252 22.3045 36.4057 23.5245C33.67 26.2575 31.863 29.7816 31.2405 33.5981C30.6179 37.4145 31.2113 41.3302 32.9367 44.7909C34.6621 48.2516 37.4321 51.0821 40.8547 52.8819C44.2773 54.6814 48.1792 55.3594 52.0083 54.8193C55.8373 54.2793 59.3997 52.5489 62.1912 49.8728C64.9826 47.1967 66.8616 43.7107 67.5627 39.9078C68.2637 36.1049 67.7512 32.1779 66.0974 28.6824C64.4438 25.1869 61.7326 22.3 58.3479 20.4302C61.2301 18.837 63.6329 16.5012 65.3071 13.6654C66.9812 10.8296 67.8656 7.59721 67.8681 4.30408C67.8681 4.00151 67.8087 3.7019 67.6928 3.42235C67.5772 3.1428 67.4075 2.88879 67.1936 2.67484C66.9795 2.46088 66.7255 2.29116 66.4459 2.17538C66.1666 2.05961 65.867 2.00003 65.5643 2.00007C63.143 1.99359 60.7442 2.46744 58.5074 3.3942C56.2703 4.32095 54.2392 5.68219 52.5318 7.39916C51.3119 8.61866 50.2686 10.0028 49.432 11.5112C47.8379 8.6318 45.5023 6.23138 42.6676 4.55907C39.833 2.88675 36.6024 2.00344 33.3112 2.00082C33.0087 2.00075 32.7092 2.06026 32.4297 2.17595C32.1502 2.29164 31.8963 2.46124 31.6824 2.67507C31.4684 2.8889 31.2987 3.14278 31.1829 3.42219C31.0671 3.70161 31.0075 4.00111 31.0074 4.30357ZM51.9762 17.8887C52.4891 15.1486 53.8184 12.6275 55.7896 10.6562C57.7607 8.68496 60.2818 7.35558 63.0219 6.84252C62.5051 9.58096 61.1744 12.1 59.2042 14.0705C57.2336 16.0411 54.7146 17.3718 51.9762 17.8887ZM59.2072 26.7871C61.1789 28.7558 62.5089 31.2755 63.0219 34.0143C60.2848 33.4968 57.7669 32.1666 55.7973 30.1968C53.8275 28.227 52.4972 25.7095 51.9797 22.9724C54.7186 23.4853 57.2381 24.8152 59.2072 26.7871ZM39.6633 26.7825C41.73 24.705 44.4076 23.3438 47.304 22.8984C47.8469 26.8955 49.6853 30.6045 52.5376 33.4569C55.3899 36.3093 59.0986 38.1479 63.0958 38.691C62.7591 40.8476 61.9164 42.8938 60.6366 44.662C59.3571 46.4302 57.6769 47.8704 55.7336 48.8644C53.7904 49.8585 51.6395 50.3783 49.4567 50.3813C47.274 50.3841 45.1217 49.8703 43.1758 48.8814C41.2299 47.8925 39.5458 46.457 38.2614 44.6921C36.977 42.9274 36.1288 40.8834 35.7861 38.7279C35.4435 36.5723 35.6162 34.3661 36.2901 32.29C36.964 30.2139 38.1199 28.3271 39.6633 26.7836V26.7825ZM35.8521 6.84578C38.5894 7.3632 41.1071 8.69361 43.0769 10.6634C45.0467 12.6332 46.3771 15.151 46.8945 17.8882C44.1574 17.3706 41.6399 16.0402 39.6702 14.0704C37.7006 12.1006 36.3704 9.58292 35.8531 6.84578H35.8521Z" fill="#0E1E28"/>
</svg>
