<svg width="41" height="41" viewBox="0 0 41 41" fill="none" xmlns="http://www.w3.org/2000/svg">
<g clip-path="url(#clip0_12_415)">
<path d="M10.25 1.28125C10.25 0.941441 10.115 0.61555 9.87473 0.375269C9.63445 0.134988 9.30856 0 8.96875 0C8.62894 0 8.30305 0.134988 8.06277 0.375269C7.82249 0.61555 7.6875 0.941441 7.6875 1.28125V2.5625H5.125C3.76577 2.5625 2.4622 3.10245 1.50108 4.06358C0.539954 5.0247 0 6.32827 0 7.6875L0 10.25H41V7.6875C41 6.32827 40.46 5.0247 39.4989 4.06358C38.5378 3.10245 37.2342 2.5625 35.875 2.5625H33.3125V1.28125C33.3125 0.941441 33.1775 0.61555 32.9372 0.375269C32.697 0.134988 32.3711 0 32.0312 0C31.6914 0 31.3655 0.134988 31.1253 0.375269C30.885 0.61555 30.75 0.941441 30.75 1.28125V2.5625H10.25V1.28125ZM41 35.875V12.8125H0V35.875C0 37.2342 0.539954 38.5378 1.50108 39.4989C2.4622 40.46 3.76577 41 5.125 41H35.875C37.2342 41 38.5378 40.46 39.4989 39.4989C40.46 38.5378 41 37.2342 41 35.875ZM24.3438 17.9375H26.9062C27.2461 17.9375 27.572 18.0725 27.8122 18.3128C28.0525 18.5531 28.1875 18.8789 28.1875 19.2188V21.7812C28.1875 22.1211 28.0525 22.447 27.8122 22.6872C27.572 22.9275 27.2461 23.0625 26.9062 23.0625H24.3438C24.0039 23.0625 23.678 22.9275 23.4378 22.6872C23.1975 22.447 23.0625 22.1211 23.0625 21.7812V19.2188C23.0625 18.8789 23.1975 18.5531 23.4378 18.3128C23.678 18.0725 24.0039 17.9375 24.3438 17.9375ZM32.0312 17.9375H34.5938C34.9336 17.9375 35.2595 18.0725 35.4997 18.3128C35.74 18.5531 35.875 18.8789 35.875 19.2188V21.7812C35.875 22.1211 35.74 22.447 35.4997 22.6872C35.2595 22.9275 34.9336 23.0625 34.5938 23.0625H32.0312C31.6914 23.0625 31.3655 22.9275 31.1253 22.6872C30.885 22.447 30.75 22.1211 30.75 21.7812V19.2188C30.75 18.8789 30.885 18.5531 31.1253 18.3128C31.3655 18.0725 31.6914 17.9375 32.0312 17.9375ZM5.125 26.9062C5.125 26.5664 5.25999 26.2405 5.50027 26.0003C5.74055 25.76 6.06644 25.625 6.40625 25.625H8.96875C9.30856 25.625 9.63445 25.76 9.87473 26.0003C10.115 26.2405 10.25 26.5664 10.25 26.9062V29.4688C10.25 29.8086 10.115 30.1345 9.87473 30.3747C9.63445 30.615 9.30856 30.75 8.96875 30.75H6.40625C6.06644 30.75 5.74055 30.615 5.50027 30.3747C5.25999 30.1345 5.125 29.8086 5.125 29.4688V26.9062ZM14.0938 25.625H16.6562C16.9961 25.625 17.3219 25.76 17.5622 26.0003C17.8025 26.2405 17.9375 26.5664 17.9375 26.9062V29.4688C17.9375 29.8086 17.8025 30.1345 17.5622 30.3747C17.3219 30.615 16.9961 30.75 16.6562 30.75H14.0938C13.7539 30.75 13.4281 30.615 13.1878 30.3747C12.9475 30.1345 12.8125 29.8086 12.8125 29.4688V26.9062C12.8125 26.5664 12.9475 26.2405 13.1878 26.0003C13.4281 25.76 13.7539 25.625 14.0938 25.625V25.625Z" fill="#996C63" fill-opacity="0.3"/>
</g>
<defs>
<clipPath id="clip0_12_415">
<rect width="41" height="41" fill="white"/>
</clipPath>
</defs>
</svg>
