<svg width="50" height="50" viewBox="0 0 50 50" fill="none" xmlns="http://www.w3.org/2000/svg">
<path d="M25 35.4167C25.5903 35.4167 26.0854 35.2167 26.4854 34.8167C26.884 34.4181 27.0833 33.9236 27.0833 33.3334V24.9479C27.0833 24.3577 26.884 23.8715 26.4854 23.4896C26.0854 23.1077 25.5903 22.9167 25 22.9167C24.4097 22.9167 23.9153 23.116 23.5167 23.5146C23.1167 23.9146 22.9167 24.4097 22.9167 25V33.3854C22.9167 33.9757 23.1167 34.4618 23.5167 34.8438C23.9153 35.2257 24.4097 35.4167 25 35.4167ZM25 18.75C25.5903 18.75 26.0854 18.55 26.4854 18.15C26.884 17.7514 27.0833 17.257 27.0833 16.6667C27.0833 16.0764 26.884 15.5813 26.4854 15.1813C26.0854 14.7827 25.5903 14.5834 25 14.5834C24.4097 14.5834 23.9153 14.7827 23.5167 15.1813C23.1167 15.5813 22.9167 16.0764 22.9167 16.6667C22.9167 17.257 23.1167 17.7514 23.5167 18.15C23.9153 18.55 24.4097 18.75 25 18.75ZM25 45.8334C22.118 45.8334 19.4097 45.2861 16.875 44.1917C14.3403 43.0986 12.1354 41.6146 10.2604 39.7396C8.38541 37.8646 6.90138 35.6597 5.80832 33.125C4.71388 30.5903 4.16666 27.882 4.16666 25C4.16666 22.1181 4.71388 19.4097 5.80832 16.875C6.90138 14.3403 8.38541 12.1354 10.2604 10.2604C12.1354 8.38544 14.3403 6.90071 16.875 5.80627C19.4097 4.71321 22.118 4.16669 25 4.16669C27.8819 4.16669 30.5903 4.71321 33.125 5.80627C35.6597 6.90071 37.8646 8.38544 39.7396 10.2604C41.6146 12.1354 43.0986 14.3403 44.1917 16.875C45.2861 19.4097 45.8333 22.1181 45.8333 25C45.8333 27.882 45.2861 30.5903 44.1917 33.125C43.0986 35.6597 41.6146 37.8646 39.7396 39.7396C37.8646 41.6146 35.6597 43.0986 33.125 44.1917C30.5903 45.2861 27.8819 45.8334 25 45.8334ZM25 41.6667C29.618 41.6667 33.5507 40.0438 36.7979 36.7979C40.0437 33.5507 41.6667 29.6181 41.6667 25C41.6667 20.382 40.0437 16.4493 36.7979 13.2021C33.5507 9.95627 29.618 8.33335 25 8.33335C20.3819 8.33335 16.45 9.95627 13.2042 13.2021C9.95693 16.4493 8.33332 20.382 8.33332 25C8.33332 29.6181 9.95693 33.5507 13.2042 36.7979C16.45 40.0438 20.3819 41.6667 25 41.6667Z" fill="#71554F" fill-opacity="0.8"/>
</svg>
