<svg width="42" height="42" viewBox="0 0 42 42" fill="none" xmlns="http://www.w3.org/2000/svg">
<path d="M22.1725 36.295L21 37.3625L18.4625 35.0525C9.45 26.88 3.5 21.4725 3.5 14.875C3.5 9.4675 7.735 5.25 13.125 5.25C16.17 5.25 19.0925 6.6675 21 8.89C22.9075 6.6675 25.83 5.25 28.875 5.25C34.265 5.25 38.5 9.4675 38.5 14.875C38.5 17.3775 37.625 19.705 36.085 22.0675C35 21.5425 33.7925 21.1925 32.5325 21.07C34.125 18.9 35 16.8875 35 14.875C35 11.375 32.375 8.75 28.875 8.75C26.18 8.75 23.555 10.5 22.6275 12.88H19.3725C18.445 10.5 15.82 8.75 13.125 8.75C9.625 8.75 7 11.375 7 14.875C7 19.9325 12.495 24.92 20.8075 32.4625L21 32.6375L21.07 32.5675C21.21 33.8975 21.595 35.1575 22.1725 36.295ZM29.75 24.5V29.75H24.5V33.25H29.75V38.5H33.25V33.25H38.5V29.75H33.25V24.5H29.75Z" fill="#996C63"/>
</svg>
