<svg width="42" height="42" viewBox="0 0 42 42" fill="none" xmlns="http://www.w3.org/2000/svg">
<path d="M21 31.5C21 33.25 21.4375 34.86 22.1725 36.295L21 37.3625L18.4625 35.0525C9.45 26.88 3.5 21.4725 3.5 14.875C3.5 9.4675 7.735 5.25 13.125 5.25C16.17 5.25 19.0925 6.6675 21 8.89C22.9075 6.6675 25.83 5.25 28.875 5.25C34.265 5.25 38.5 9.4675 38.5 14.875C38.5 17.3775 37.625 19.705 36.085 22.0675C34.7025 21.4025 33.145 21 31.5 21C25.7075 21 21 25.7075 21 31.5ZM37.695 27.79L35.21 25.3225L31.5 29.0325L27.79 25.3225L25.3225 27.79L29.0325 31.5L25.3225 35.21L27.79 37.695L31.5 33.9675L35.21 37.695L37.695 35.21L33.9675 31.5L37.695 27.79Z" fill="#996C63"/>
</svg>
